<svg version="1.1" viewBox="0.0 0.0 827.0 329.0" fill="none" stroke="none" stroke-linecap="square" stroke-miterlimit="10" xmlns:xlink="http://www.w3.org/1999/xlink" xmlns="http://www.w3.org/2000/svg"><clipPath id="p.0"><path d="m0 0l827.0 0l0 329.0l-827.0 0l0 -329.0z" clip-rule="nonzero"/></clipPath><g clip-path="url(#p.0)"><path fill="#ffffff" d="m0 0l827.0 0l0 329.0l-827.0 0z" fill-rule="evenodd"/><path fill="#000000" fill-opacity="0.0" d="m444.3682 306.48425c-12.994843 0 -23.529236 -10.534393 -23.529236 -23.529236l0 -94.12262c0 -12.994843 -10.534393 -23.529251 -23.529236 -23.529251c12.994843 0 23.529236 -10.534393 23.529236 -23.529236l0 -94.12262l0 0c0 -12.994843 10.534393 -23.529243 23.529236 -23.529243l426.22946 0c6.2403564 0 12.225098 2.4789658 16.637695 6.891556c4.4125977 4.41259 6.8916016 10.397343 6.8916016 16.637688l0 94.12262c0 12.994843 10.534363 23.529236 23.529236 23.529236l0 0c-12.994873 0 -23.529236 10.534409 -23.529236 23.529251l0 94.12262c0 12.994843 -10.534424 23.529236 -23.529297 23.529236z" fill-rule="evenodd"/><path fill="#000000" fill-opacity="0.0" d="m444.3682 306.48425c-12.994843 0 -23.529236 -10.534393 -23.529236 -23.529236l0 -94.12262c0 -12.994843 -10.534393 -23.529251 -23.529236 -23.529251c12.994843 0 23.529236 -10.534393 23.529236 -23.529236l0 -94.12262l0 0c0 -12.994843 10.534393 -23.529243 23.529236 -23.529243m426.22946 0c6.2403564 0 12.225098 2.4789658 16.637695 6.891556c4.4125977 4.41259 6.8916016 10.397343 6.8916016 16.637688l0 94.12262c0 12.994843 10.534363 23.529236 23.529236 23.529236l0 0c-12.994873 0 -23.529236 10.534409 -23.529236 23.529251l0 94.12262c0 12.994843 -10.534424 23.529236 -23.529297 23.529236" fill-rule="evenodd"/><path stroke="#999999" stroke-width="8.0" stroke-linejoin="round" stroke-linecap="butt" d="m444.3682 306.48425c-12.994843 0 -23.529236 -10.534393 -23.529236 -23.529236l0 -94.12262c0 -12.994843 -10.534393 -23.529251 -23.529236 -23.529251c12.994843 0 23.529236 -10.534393 23.529236 -23.529236l0 -94.12262l0 0c0 -12.994843 10.534393 -23.529243 23.529236 -23.529243m426.22946 0c6.2403564 0 12.225098 2.4789658 16.637695 6.891556c4.4125977 4.41259 6.8916016 10.397343 6.8916016 16.637688l0 94.12262c0 12.994843 10.534363 23.529236 23.529236 23.529236l0 0c-12.994873 0 -23.529236 10.534409 -23.529236 23.529251l0 94.12262c0 12.994843 -10.534424 23.529236 -23.529297 23.529236" fill-rule="evenodd"/><path fill="#ffffff" d="m7.5013123 87.0l393.73227 0l0 154.51968l-393.73227 0z" fill-rule="evenodd"/><path fill="#ffffff" d="m914.66797 157.82677l18.141724 0l0 24.18898l-18.141724 0z" fill-rule="evenodd"/><path stroke="#ffffff" stroke-width="1.0" stroke-linejoin="round" stroke-linecap="butt" d="m914.66797 157.82677l18.141724 0l0 24.18898l-18.141724 0z" fill-rule="evenodd"/><path fill="#ffffff" d="m18.07349 165.01575l372.0 0l0 67.2126l-372.0 0z" fill-rule="evenodd"/><path stroke="#000000" stroke-width="3.0" stroke-linejoin="round" stroke-linecap="butt" d="m18.07349 165.01575l372.0 0l0 67.2126l-372.0 0z" fill-rule="evenodd"/><path fill="#000000" fill-opacity="0.0" d="m18.07349 172.90552l372.0 0l0 53.32283l-372.0 0z" fill-rule="evenodd"/><path fill="#000000" d="m31.85178 208.7855l0 -19.59375l3.640625 0l0 19.59375l-3.640625 0zm8.932037 0l0 -19.59375l3.0 0l12.296875 15.078125l-1.484375 0l0 -15.078125l3.609375 0l0 19.59375l-3.0 0l-12.28125 -15.09375l1.484375 0l0 15.09375l-3.625 0zm33.75188 -10.578125l9.765625 0l0 3.078125l-9.765625 0l0 -3.078125zm0.296875 10.578125l-3.640625 0l0 -19.59375l14.3125 0l0 3.046875l-10.671875 0l0 16.546875zm14.19545 0l0 -19.59375l3.640625 0l0 19.59375l-3.640625 0zm8.932037 0l0 -19.59375l3.0 0l12.296875 15.078125l-1.484375 0l0 -15.078125l3.609375 0l0 19.59375l-3.0 0l-12.28125 -15.09375l1.484375 0l0 15.09375l-3.625 0zm19.914474 0l8.828125 -19.59375l3.5781174 0l8.84375 19.59375l-3.8125 0l-7.5781174 -17.671875l1.4531174 0l-7.5624924 17.671875l-3.75 0zm4.0625 -4.53125l0.984375 -2.859375l10.578117 0l0.984375 2.859375l-12.546867 0zm19.675209 4.53125l0 -19.59375l3.0 0l12.296875 15.078125l-1.484375 0l0 -15.078125l3.609375 0l0 19.59375l-3.0 0l-12.28125 -15.09375l1.484375 0l0 15.09375l-3.625 0zm31.758224 0.28125q-2.234375 0 -4.15625 -0.734375q-1.921875 -0.75 -3.34375 -2.109375q-1.40625 -1.359375 -2.1875 -3.203125q-0.78125 -1.84375 -0.78125 -4.03125q0 -2.1875 0.78125 -4.03125q0.78125 -1.859375 2.203125 -3.203125q1.4375 -1.359375 3.34375 -2.09375q1.90625 -0.75 4.171875 -0.75q2.40625 0 4.390625 0.828125q1.984375 0.8125 3.359375 2.4375l-2.34375 2.21875q-1.0625 -1.15625 -2.390625 -1.71875q-1.3125 -0.578125 -2.84375 -0.578125q-1.546875 0 -2.828125 0.5q-1.265625 0.5 -2.203125 1.4375q-0.9375 0.921875 -1.453125 2.1875q-0.515625 1.25 -0.515625 2.765625q0 1.515625 0.515625 2.78125q0.515625 1.25 1.453125 2.171875q0.9375 0.921875 2.203125 1.4375q1.28125 0.5 2.828125 0.5q1.53125 0 2.84375 -0.578125q1.328125 -0.578125 2.390625 -1.75l2.34375 2.234375q-1.375 1.59375 -3.359375 2.4375q-1.984375 0.84375 -4.421875 0.84375zm11.277954 -0.28125l0 -19.59375l3.640625 0l0 19.59375l-3.640625 0zm6.1664124 0l8.828125 -19.59375l3.578125 0l8.84375 19.59375l-3.8125 0l-7.578125 -17.671875l1.453125 0l-7.5625 17.671875l-3.75 0zm4.0625 -4.53125l0.984375 -2.859375l10.578125 0l0.984375 2.859375l-12.546875 0zm19.675217 4.53125l0 -19.59375l3.640625 0l0 16.515625l10.25 0l0 3.078125l-13.890625 0zm30.578217 0.28125q-2.296875 0 -4.390625 -0.65625q-2.09375 -0.65625 -3.328125 -1.703125l1.25 -2.828125q1.1875 0.9375 2.921875 1.546875q1.734375 0.609375 3.546875 0.609375q1.546875 0 2.5 -0.328125q0.953125 -0.34375 1.390625 -0.90625q0.453125 -0.578125 0.453125 -1.3125q0 -0.890625 -0.640625 -1.4375q-0.640625 -0.546875 -1.671875 -0.859375q-1.015625 -0.328125 -2.265625 -0.609375q-1.25 -0.28125 -2.5 -0.65625q-1.234375 -0.375 -2.265625 -0.96875q-1.015625 -0.609375 -1.65625 -1.609375q-0.640625 -1.015625 -0.640625 -2.59375q0 -1.59375 0.84375 -2.921875q0.859375 -1.328125 2.609375 -2.125q1.75 -0.796875 4.4375 -0.796875q1.765625 0 3.5 0.453125q1.734375 0.4375 3.015625 1.28125l-1.140625 2.828125q-1.3125 -0.78125 -2.71875 -1.15625q-1.390625 -0.390625 -2.6875 -0.390625q-1.515625 0 -2.453125 0.375q-0.9375 0.359375 -1.375 0.953125q-0.421875 0.578125 -0.421875 1.328125q0 0.90625 0.625 1.453125q0.625 0.546875 1.640625 0.859375q1.03125 0.296875 2.296875 0.59375q1.265625 0.296875 2.5 0.65625q1.25 0.359375 2.265625 0.953125q1.03125 0.59375 1.65625 1.609375q0.625 1.0 0.625 2.53125q0 1.578125 -0.859375 2.90625q-0.84375 1.328125 -2.609375 2.125q-1.765625 0.796875 -4.453125 0.796875zm14.893341 -11.734375l9.75 0l0 3.0l-9.75 0l0 -3.0zm0.28125 8.40625l11.0625 0l0 3.046875l-14.703125 0l0 -19.59375l14.3125 0l0 3.046875l-10.671875 0l0 13.5zm15.119446 3.046875l0 -19.59375l8.078125 0q2.59375 0 4.453125 0.84375q1.875 0.828125 2.875 2.40625q1.015625 1.5625 1.015625 3.71875q0 2.15625 -1.015625 3.71875q-1.0 1.546875 -2.875 2.375q-1.859375 0.8125 -4.453125 0.8125l-6.0625 0l1.625 -1.640625l0 7.359375l-3.640625 0zm12.828125 0l-4.953125 -7.109375l3.890625 0l4.984375 7.109375l-3.921875 0zm-9.1875 -6.96875l-1.625 -1.734375l5.890625 0q2.40625 0 3.625 -1.03125q1.21875 -1.046875 1.21875 -2.890625q0 -1.875 -1.21875 -2.875q-1.21875 -1.015625 -3.625 -1.015625l-5.890625 0l1.625 -1.796875l0 11.34375zm22.624298 6.96875l-8.5625 -19.59375l3.953125 0l7.640625 17.71875l-2.265625 0l7.71875 -17.71875l3.640625 0l-8.53125 19.59375l-3.59375 0zm14.19519 0l0 -19.59375l3.640625 0l0 19.59375l-3.640625 0zm18.010162 0.28125q-2.234375 0 -4.15625 -0.734375q-1.921875 -0.75 -3.34375 -2.109375q-1.40625 -1.359375 -2.1875 -3.203125q-0.78125 -1.84375 -0.78125 -4.03125q0 -2.1875 0.78125 -4.03125q0.78125 -1.859375 2.203125 -3.203125q1.4375 -1.359375 3.34375 -2.09375q1.90625 -0.75 4.171875 -0.75q2.40625 0 4.390625 0.828125q1.984375 0.8125 3.359375 2.4375l-2.34375 2.21875q-1.0625 -1.15625 -2.390625 -1.71875q-1.3125 -0.578125 -2.84375 -0.578125q-1.546875 0 -2.828125 0.5q-1.265625 0.5 -2.203125 1.4375q-0.9375 0.921875 -1.453125 2.1875q-0.515625 1.25 -0.515625 2.765625q0 1.515625 0.515625 2.78125q0.515625 1.25 1.453125 2.171875q0.9375 0.921875 2.203125 1.4375q1.28125 0.5 2.828125 0.5q1.53125 0 2.84375 -0.578125q1.328125 -0.578125 2.390625 -1.75l2.34375 2.234375q-1.375 1.59375 -3.359375 2.4375q-1.984375 0.84375 -4.421875 0.84375zm14.637329 -11.734375l9.75 0l0 3.0l-9.75 0l0 -3.0zm0.28125 8.40625l11.0625 0l0 3.046875l-14.703125 0l0 -19.59375l14.3125 0l0 3.046875l-10.671875 0l0 13.5zm21.19757 3.328125q-2.296875 0 -4.390625 -0.65625q-2.09375 -0.65625 -3.328125 -1.703125l1.25 -2.828125q1.1875 0.9375 2.921875 1.546875q1.734375 0.609375 3.546875 0.609375q1.546875 0 2.5 -0.328125q0.953125 -0.34375 1.390625 -0.90625q0.453125 -0.578125 0.453125 -1.3125q0 -0.890625 -0.640625 -1.4375q-0.640625 -0.546875 -1.671875 -0.859375q-1.015625 -0.328125 -2.265625 -0.609375q-1.25 -0.28125 -2.5 -0.65625q-1.234375 -0.375 -2.265625 -0.96875q-1.015625 -0.609375 -1.65625 -1.609375q-0.640625 -1.015625 -0.640625 -2.59375q0 -1.59375 0.84375 -2.921875q0.859375 -1.328125 2.609375 -2.125q1.75 -0.796875 4.4375 -0.796875q1.765625 0 3.5 0.453125q1.734375 0.4375 3.015625 1.28125l-1.140625 2.828125q-1.3125 -0.78125 -2.71875 -1.15625q-1.390625 -0.390625 -2.6875 -0.390625q-1.515625 0 -2.453125 0.375q-0.9375 0.359375 -1.375 0.953125q-0.421875 0.578125 -0.421875 1.328125q0 0.90625 0.625 1.453125q0.625 0.546875 1.640625 0.859375q1.03125 0.296875 2.296875 0.59375q1.265625 0.296875 2.5 0.65625q1.25 0.359375 2.265625 0.953125q1.03125 0.59375 1.65625 1.609375q0.625 1.0 0.625 2.53125q0 1.578125 -0.859375 2.90625q-0.84375 1.328125 -2.609375 2.125q-1.765625 0.796875 -4.453125 0.796875z" fill-rule="nonzero"/><path fill="#000000" d="m18.07349 97.80315l372.0 0l0 67.2126l-372.0 0z" fill-rule="evenodd"/><path stroke="#000000" stroke-width="3.0" stroke-linejoin="round" stroke-linecap="butt" d="m18.07349 97.80315l372.0 0l0 67.2126l-372.0 0z" fill-rule="evenodd"/><path fill="#000000" fill-opacity="0.0" d="m18.07349 89.3937l372.0 0l0 84.0315l-372.0 0z" fill-rule="evenodd"/><path fill="#ffffff" d="m56.78861 150.12495q-4.0 0 -7.421875 -1.4375q-3.40625 -1.4375 -5.953125 -4.015625q-2.53125 -2.59375 -3.921875 -6.109375q-1.375 -3.53125 -1.375 -7.6875q0 -4.1562576 1.375 -7.6718826q1.390625 -3.53125 3.921875 -6.109375q2.546875 -2.59375 5.953125 -4.03125q3.421875 -1.4375 7.421875 -1.4375q4.046875 0 7.453129 1.4375q3.421875 1.4375 5.921875 4.0625q2.515625 2.609375 3.890625 6.109375q1.390625 3.484375 1.390625 7.6406326q0 4.109375 -1.390625 7.625q-1.375 3.515625 -3.890625 6.140625q-2.5 2.609375 -5.921875 4.046875q-3.4062538 1.4375 -7.453129 1.4375zm0 -6.609375q2.546875 0 4.65625 -0.9375q2.109375 -0.9375 3.6562538 -2.65625q1.546875 -1.734375 2.421875 -4.03125q0.890625 -2.296875 0.890625 -5.015625q0 -2.71875 -0.890625 -5.0156326q-0.875 -2.296875 -2.421875 -4.015625q-1.5468788 -1.734375 -3.6562538 -2.671875q-2.109375 -0.9375 -4.65625 -0.9375q-2.515625 0 -4.65625 0.9375q-2.125 0.9375 -3.671875 2.640625q-1.546875 1.703125 -2.40625 4.0q-0.84375 2.2968826 -0.84375 5.0625076q0 2.71875 0.84375 5.046875q0.859375 2.3125 2.40625 4.015625q1.546875 1.703125 3.671875 2.640625q2.140625 0.9375 4.65625 0.9375zm25.007893 17.8125l0 -39.843758l6.453125 0l0.109375 6.40625l-1.125 -0.484375q0.3125 -1.65625 1.796875 -3.109375q1.5 -1.46875 3.65625 -2.375q2.171875 -0.90625 4.515625 -0.90625q3.734375 0 6.640625 1.875q2.90625 1.859375 4.578125 5.109375q1.6875 3.2500076 1.6875 7.5156326q0 4.21875 -1.6875 7.5q-1.671875 3.265625 -4.578125 5.171875q-2.90625 1.890625 -6.53125 1.890625q-2.453125 0 -4.71875 -0.953125q-2.265625 -0.96875 -3.84375 -2.515625q-1.578125 -1.546875 -1.9375 -3.25l1.59375 -0.75l0 18.71875l-6.609375 0zm14.1875 -17.0625q2.234375 0 3.984375 -1.125q1.765625 -1.125 2.75 -3.09375q0.984375 -1.96875 0.984375 -4.53125q0 -2.5625 -0.953125 -4.5q-0.953125 -1.953125 -2.71875 -3.0625076q-1.765625 -1.125 -4.046875 -1.125q-2.359375 0 -4.09375 1.09375q-1.71875 1.0937576 -2.734375 3.0625076q-1.015625 1.96875 -1.015625 4.53125q0 2.5625 1.015625 4.53125q1.015625 1.96875 2.734375 3.09375q1.734375 1.125 4.09375 1.125zm33.16764 5.859375q-4.4374924 0 -7.8281174 -1.859375q-3.375 -1.875 -5.265625 -5.09375q-1.890625 -3.234375 -1.890625 -7.390625q0 -3.3125 1.0625 -6.03125q1.0625 -2.7187576 2.953125 -4.7187576q1.90625 -2.0 4.53125 -3.09375q2.640625 -1.09375 5.7968674 -1.09375q2.765625 0 5.15625 1.078125q2.40625 1.0625 4.171875 2.90625q1.765625 1.828125 2.6875 4.3750076q0.9375 2.53125 0.890625 5.515625l-0.0625 2.296875l-22.765617 0l-1.234375 -4.484375l18.515617 0l-0.859375 0.90625l0 -1.171875q-0.15625 -1.65625 -1.0625 -2.90625q-0.90625 -1.25 -2.328125 -1.9687576q-1.40625 -0.734375 -3.109375 -0.734375q-2.6093674 0 -4.4062424 1.015625q-1.78125 1.0156326 -2.6875 2.9062576q-0.90625 1.890625 -0.90625 4.71875q0 2.71875 1.140625 4.75q1.15625 2.03125 3.25 3.125q2.109375 1.09375 4.9374924 1.09375q1.96875 0 3.625 -0.640625q1.65625 -0.640625 3.578125 -2.296875l3.25 4.53125q-1.4375 1.328125 -3.28125 2.265625q-1.84375 0.9375 -3.875 1.46875q-2.015625 0.53125 -3.984375 0.53125zm18.078354 -0.53125l0 -28.109383l6.390625 0l0.109375 5.765625l-1.21875 0.640625q0.53125 -1.921875 2.078125 -3.484375q1.546875 -1.578125 3.671875 -2.53125q2.140625 -0.96875 4.375 -0.96875q3.203125 0 5.359375 1.28125q2.15625 1.28125 3.25 3.84375q1.09375 2.5468826 1.09375 6.3906326l0 17.171875l-6.5625 0l0 -16.6875q0 -2.140625 -0.59375 -3.546875q-0.578125 -1.4218826 -1.8125 -2.0781326q-1.21875 -0.671875 -2.96875 -0.625q-1.4375 0 -2.640625 0.453125q-1.203125 0.453125 -2.09375 1.2812576q-0.875 0.828125 -1.375 1.90625q-0.5 1.0625 -0.5 2.34375l0 16.953125l-3.265625 0q-0.953125 0 -1.78125 0q-0.828125 0 -1.515625 0zm61.170837 0.53125q-3.265625 0 -5.984375 -0.828125q-2.71875 -0.828125 -4.90625 -2.46875q-2.1875 -1.65625 -3.890625 -4.0l4.53125 -5.125q2.609375 3.625 5.109375 5.015625q2.515625 1.375 5.671875 1.375q1.8125 0 3.296875 -0.546875q1.5 -0.5625 2.34375 -1.546875q0.859375 -0.984375 0.859375 -2.265625q0 -0.90625 -0.34375 -1.671875q-0.34375 -0.78125 -1.046875 -1.390625q-0.6875 -0.625 -1.703125 -1.15625q-1.015625 -0.53125 -2.296875 -0.90625q-1.28125 -0.375 -2.828125 -0.6875q-2.921875 -0.59375 -5.109375 -1.578125q-2.1875 -0.984375 -3.6875 -2.453125q-1.484375 -1.46875 -2.1875 -3.2968826q-0.6875 -1.84375 -0.6875 -4.203125q0 -2.34375 1.03125 -4.3125q1.046875 -1.96875 2.859375 -3.40625q1.8125 -1.453125 4.203125 -2.25q2.40625 -0.796875 5.1875 -0.796875q3.140625 0 5.625 0.75q2.484375 0.75 4.375 2.21875q1.890625 1.453125 3.109375 3.53125l-4.578125 4.53125q-1.0625 -1.640625 -2.40625 -2.734375q-1.328125 -1.09375 -2.875 -1.65625q-1.546875 -0.5625 -3.25 -0.5625q-1.921875 0 -3.34375 0.53125q-1.40625 0.53125 -2.203125 1.53125q-0.796875 0.984375 -0.796875 2.359375q0 1.078125 0.46875 1.90625q0.484375 0.8125 1.359375 1.453125q0.890625 0.640625 2.265625 1.125q1.390625 0.484375 3.15625 0.859375q2.9375 0.5781326 5.28125 1.5625076q2.34375 0.984375 3.984375 2.34375q1.65625 1.359375 2.515625 3.09375q0.859375 1.734375 0.859375 3.875q0 3.671875 -1.734375 6.3125q-1.734375 2.640625 -4.890625 4.0625q-3.140625 1.40625 -7.34375 1.40625zm33.2648 0q-4.203125 0 -7.515625 -1.890625q-3.3125 -1.890625 -5.234375 -5.1875q-1.90625 -3.3125 -1.90625 -7.53125q0 -4.21875 1.90625 -7.5156326q1.921875 -3.3125 5.234375 -5.203125q3.3125 -1.890625 7.515625 -1.890625q4.15625 0 7.46875 1.890625q3.3125 1.890625 5.203125 5.203125q1.8906403 3.2968826 1.8906403 7.5156326q0 4.21875 -1.8906403 7.53125q-1.890625 3.296875 -5.203125 5.1875q-3.3125 1.890625 -7.46875 1.890625zm0 -5.8125q2.296875 0 4.078125 -1.171875q1.796875 -1.171875 2.828125 -3.140625q1.046875 -1.984375 0.984375 -4.484375q0.0625 -2.5625 -0.984375 -4.53125q-1.03125 -1.96875 -2.828125 -3.1093826q-1.78125 -1.15625 -4.078125 -1.15625q-2.28125 0 -4.125 1.15625q-1.84375 1.1406326 -2.859375 3.1406326q-1.015625 2.0 -1.015625 4.5q0 2.5 1.015625 4.484375q1.015625 1.96875 2.859375 3.140625q1.84375 1.171875 4.125 1.171875zm30.182968 5.8125q-3.03125 0 -5.28125 -1.359375q-2.234375 -1.359375 -3.40625 -3.890625q-1.171875 -2.53125 -1.171875 -6.046875l0 -17.343758l6.5625 0l0 15.953133q0 2.234375 0.6875 3.8125q0.6875 1.578125 2.015625 2.4375q1.34375 0.84375 3.2187195 0.84375q1.375 0 2.515625 -0.453125q1.15625 -0.453125 2.0 -1.28125q0.859375 -0.828125 1.34375 -1.96875q0.484375 -1.15625 0.484375 -2.484375l0 -16.859383l6.546875 0l0 28.109383l-6.390625 0l-0.109375 -5.859375l1.171875 -0.640625q-0.640625 2.015625 -2.15625 3.59375q-1.515625 1.578125 -3.609375 2.515625q-2.078125 0.921875 -4.4218445 0.921875zm23.206696 -0.53125l0 -28.109383l6.453125 0l0.109375 8.968758l-0.90625 -2.03125q0.578125 -2.1250076 2.015625 -3.8281326q1.4375 -1.71875 3.328125 -2.703125q1.90625 -0.984375 3.984375 -0.984375q0.90625 0 1.734375 0.15625q0.828125 0.15625 1.359375 0.375l-1.765625 7.2031326q-0.578125 -0.328125 -1.4375 -0.53125q-0.859375 -0.21875763 -1.703125 -0.21875763q-1.34375 0 -2.546875 0.5156326q-1.1875 0.5 -2.09375 1.40625q-0.90625 0.90625 -1.421875 2.109375q-0.5 1.1875 -0.5 2.6875l0 14.984375l-6.609375 0zm33.324677 0.53125q-3.9375 0 -7.09375 -1.921875q-3.140625 -1.921875 -4.953125 -5.21875q-1.8125 -3.3125 -1.8125 -7.46875q0 -4.15625 1.8125 -7.453125q1.8125 -3.3125076 4.953125 -5.2343826q3.15625 -1.921875 7.09375 -1.921875q3.78125 0 6.875 1.4375q3.09375 1.4375 4.8125 4.0l-3.640625 4.3750076q-0.796875 -1.125 -2.03125 -2.03125q-1.21875 -0.9062576 -2.609375 -1.4375076q-1.375 -0.53125 -2.765625 -0.53125q-2.34375 0 -4.1875 1.15625q-1.84375 1.1406326 -2.90625 3.1406326q-1.0625 2.0 -1.0625 4.5q0 2.5 1.09375 4.484375q1.09375 1.96875 2.953125 3.140625q1.875 1.171875 4.15625 1.171875q1.390625 0 2.6875 -0.453125q1.3125 -0.453125 2.484375 -1.296875q1.1875 -0.859375 2.1875 -2.140625l3.640625 4.421875q-1.828125 2.34375 -5.0 3.8125q-3.171875 1.46875 -6.6875 1.46875zm29.868805 0q-4.4375 0 -7.828125 -1.859375q-3.375 -1.875 -5.265625 -5.09375q-1.890625 -3.234375 -1.890625 -7.390625q0 -3.3125 1.0625 -6.03125q1.0625 -2.7187576 2.953125 -4.7187576q1.90625 -2.0 4.53125 -3.09375q2.640625 -1.09375 5.796875 -1.09375q2.765625 0 5.15625 1.078125q2.40625 1.0625 4.171875 2.90625q1.765625 1.828125 2.6875 4.3750076q0.9375 2.53125 0.890625 5.515625l-0.0625 2.296875l-22.765625 0l-1.234375 -4.484375l18.515625 0l-0.859375 0.90625l0 -1.171875q-0.15625 -1.65625 -1.0625 -2.90625q-0.90625 -1.25 -2.328125 -1.9687576q-1.40625 -0.734375 -3.109375 -0.734375q-2.609375 0 -4.40625 1.015625q-1.78125 1.0156326 -2.6875 2.9062576q-0.90625 1.890625 -0.90625 4.71875q0 2.71875 1.140625 4.75q1.15625 2.03125 3.25 3.125q2.109375 1.09375 4.9375 1.09375q1.96875 0 3.625 -0.640625q1.65625 -0.640625 3.578125 -2.296875l3.25 4.53125q-1.4375 1.328125 -3.28125 2.265625q-1.84375 0.9375 -3.875 1.46875q-2.015625 0.53125 -3.984375 0.53125z" fill-rule="nonzero"/><path fill="#ff0000" d="m437.0735 97.80315l372.0 0l0 67.2126l-372.0 0z" fill-rule="evenodd"/><path stroke="#ff0000" stroke-width="3.0" stroke-linejoin="round" stroke-linecap="butt" d="m437.0735 97.80315l372.0 0l0 67.2126l-372.0 0z" fill-rule="evenodd"/><path fill="#000000" fill-opacity="0.0" d="m417.57217 26.517061l446.92917 0l0 342.58267l-446.92917 0z" fill-rule="evenodd"/><path fill="#000000" d="m447.26624 86.71706l0 -37.328125l15.890625 0q3.671875 0 6.203125 1.0625q2.546875 1.0625 3.84375 3.171875q1.3125 2.109375 1.3125 5.09375q0 3.09375 -1.65625 5.234375q-1.65625 2.125 -4.640625 2.921875l-0.046875 -1.0625q2.5 0.53125 4.359375 1.890625q1.875 1.359375 2.90625 3.359375q1.046875 2.0 1.046875 4.5625q0 2.71875 -0.875 4.796875q-0.875 2.078125 -2.59375 3.46875q-1.703125 1.390625 -4.046875 2.109375q-2.34375 0.71875 -5.28125 0.71875l-16.421875 0zm6.765625 -6.234375l9.34375 0q1.96875 0 3.328125 -0.578125q1.359375 -0.59375 2.078125 -1.734375q0.71875 -1.15625 0.71875 -2.765625q0 -1.484375 -0.78125 -2.546875q-0.765625 -1.078125 -2.203125 -1.625q-1.4375 -0.5625 -3.421875 -0.5625l-9.0625 0l0 9.8125zm0 -15.796875l8.484375 0q1.546875 0 2.6875 -0.578125q1.15625 -0.59375 1.796875 -1.59375q0.640625 -1.015625 0.640625 -2.359375q0 -2.125 -1.453125 -3.328125q-1.4375 -1.203125 -4.203125 -1.203125l-7.953125 0l0 9.0625zm41.870758 22.5625q-4.4375 0 -7.828125 -1.859375q-3.375 -1.875 -5.265625 -5.09375q-1.890625 -3.234375 -1.890625 -7.390625q0 -3.3125 1.0625 -6.03125q1.0625 -2.71875 2.953125 -4.71875q1.90625 -2.0 4.53125 -3.09375q2.640625 -1.09375 5.796875 -1.09375q2.765625 0 5.15625 1.078125q2.40625 1.0625 4.171875 2.90625q1.765625 1.828125 2.6875 4.375q0.9375 2.53125 0.890625 5.515625l-0.0625 2.296875l-22.765625 0l-1.234375 -4.484375l18.515625 0l-0.859375 0.90625l0 -1.171875q-0.15625 -1.65625 -1.0625 -2.90625q-0.90625 -1.25 -2.328125 -1.96875q-1.40625 -0.734375 -3.109375 -0.734375q-2.609375 0 -4.40625 1.015625q-1.78125 1.015625 -2.6875 2.90625q-0.90625 1.890625 -0.90625 4.71875q0 2.71875 1.140625 4.75q1.15625 2.03125 3.25 3.125q2.109375 1.09375 4.9375 1.09375q1.96875 0 3.625 -0.640625q1.65625 -0.640625 3.578125 -2.296875l3.25 4.53125q-1.4375 1.328125 -3.28125 2.265625q-1.84375 0.9375 -3.875 1.46875q-2.015625 0.53125 -3.984375 0.53125zm27.453339 0q-3.71875 0 -6.6875 -1.25q-2.953125 -1.25 -4.828125 -3.59375l4.265625 -3.6875q1.609375 1.8125 3.578125 2.609375q1.96875 0.796875 4.15625 0.796875q0.90625 0 1.625 -0.203125q0.71875 -0.21875 1.25 -0.640625q0.546875 -0.421875 0.828125 -0.984375q0.296875 -0.5625 0.296875 -1.25q0 -1.28125 -0.953125 -2.03125q-0.53125 -0.375 -1.6875 -0.796875q-1.140625 -0.4375 -2.953125 -0.859375q-2.890625 -0.75 -4.8125 -1.734375q-1.90625 -0.984375 -2.984375 -2.21875q-0.90625 -1.0 -1.359375 -2.28125q-0.453125 -1.28125 -0.453125 -2.78125q0 -1.859375 0.828125 -3.375q0.828125 -1.53125 2.265625 -2.640625q1.453125 -1.125 3.359375 -1.703125q1.921875 -0.59375 4.0 -0.59375q2.140625 0 4.140625 0.53125q2.0 0.53125 3.734375 1.515625q1.734375 0.984375 2.953125 2.375l-3.625 4.0q-1.015625 -0.953125 -2.21875 -1.703125q-1.1875 -0.75 -2.421875 -1.203125q-1.21875 -0.453125 -2.296875 -0.453125q-1.0 0 -1.8125 0.1875q-0.796875 0.1875 -1.328125 0.5625q-0.53125 0.375 -0.828125 0.9375q-0.296875 0.546875 -0.296875 1.296875q0.0625 0.640625 0.34375 1.203125q0.296875 0.5625 0.828125 0.9375q0.59375 0.375 1.765625 0.859375q1.171875 0.46875 3.046875 0.890625q2.609375 0.703125 4.359375 1.5625q1.765625 0.84375 2.78125 1.96875q1.015625 0.953125 1.4375 2.234375q0.421875 1.28125 0.421875 2.828125q0 2.5 -1.40625 4.484375q-1.40625 1.96875 -3.84375 3.09375q-2.421875 1.109375 -5.46875 1.109375zm19.520386 -0.53125l0 -35.25l6.5625 0l0 35.25l-6.5625 0zm-5.546875 -22.03125l0 -6.078125l18.25 0l0 6.078125l-18.25 0zm40.110535 22.03125l0 -37.328125l15.515625 0q3.203125 0 5.78125 1.546875q2.59375 1.546875 4.140625 4.21875q1.546875 2.65625 1.546875 5.96875q0 3.359375 -1.546875 6.046875q-1.546875 2.6875 -4.140625 4.296875q-2.578125 1.59375 -5.78125 1.59375l-8.578125 0l0 13.65625l-6.9375 0zm6.9375 -20.046875l8.09375 0q1.34375 0 2.4375 -0.75q1.09375 -0.75 1.75 -1.96875q0.671875 -1.234375 0.671875 -2.78125q0 -1.546875 -0.671875 -2.734375q-0.65625 -1.203125 -1.75 -1.921875q-1.09375 -0.734375 -2.4375 -0.734375l-8.09375 0l0 10.890625zm26.233887 20.046875l0 -28.109375l6.453125 0l0.109375 8.96875l-0.90625 -2.03125q0.578125 -2.125 2.015625 -3.828125q1.4375 -1.71875 3.328125 -2.703125q1.90625 -0.984375 3.984375 -0.984375q0.90625 0 1.734375 0.15625q0.828125 0.15625 1.359375 0.375l-1.765625 7.203125q-0.578125 -0.328125 -1.4375 -0.53125q-0.859375 -0.21875 -1.703125 -0.21875q-1.34375 0 -2.546875 0.515625q-1.1875 0.5 -2.09375 1.40625q-0.90625 0.90625 -1.421875 2.109375q-0.5 1.1875 -0.5 2.6875l0 14.984375l-6.609375 0zm31.887146 0.53125q-3.46875 0 -6.296875 -1.921875q-2.828125 -1.921875 -4.53125 -5.21875q-1.703125 -3.3125 -1.703125 -7.515625q0 -4.21875 1.703125 -7.515625q1.703125 -3.3125 4.640625 -5.171875q2.9375 -1.875 6.609375 -1.875q2.140625 0 3.890625 0.609375q1.765625 0.609375 3.09375 1.734375q1.34375 1.125 2.21875 2.5625q0.875 1.4375 1.203125 3.09375l-1.4375 -0.375l0 -7.046875l6.609375 0l0 28.109375l-6.671875 0l0 -6.71875l1.546875 -0.265625q-0.375 1.4375 -1.359375 2.796875q-0.984375 1.359375 -2.453125 2.40625q-1.46875 1.03125 -3.25 1.671875q-1.78125 0.640625 -3.8125 0.640625zm1.8125 -5.8125q2.296875 0 4.046875 -1.109375q1.765625 -1.125 2.75 -3.125q0.984375 -2.0 0.984375 -4.609375q0 -2.5625 -0.984375 -4.53125q-0.984375 -1.984375 -2.75 -3.09375q-1.75 -1.125 -4.046875 -1.125q-2.296875 0 -4.03125 1.125q-1.734375 1.109375 -2.703125 3.09375q-0.953125 1.96875 -0.953125 4.53125q0 2.609375 0.953125 4.609375q0.96875 2.0 2.703125 3.125q1.734375 1.109375 4.03125 1.109375zm33.861633 5.8125q-3.9375 0 -7.093811 -1.921875q-3.140625 -1.921875 -4.953125 -5.21875q-1.8125 -3.3125 -1.8125 -7.46875q0 -4.15625 1.8125 -7.453125q1.8125 -3.3125 4.953125 -5.234375q3.156311 -1.921875 7.093811 -1.921875q3.78125 0 6.875 1.4375q3.09375 1.4375 4.8125 4.0l-3.640625 4.375q-0.796875 -1.125 -2.03125 -2.03125q-1.21875 -0.90625 -2.609375 -1.4375q-1.375 -0.53125 -2.765625 -0.53125q-2.34375 0 -4.1875 1.15625q-1.843811 1.140625 -2.906311 3.140625q-1.0625 2.0 -1.0625 4.5q0 2.5 1.09375 4.484375q1.09375 1.96875 2.953186 3.140625q1.875 1.171875 4.15625 1.171875q1.390625 0 2.6875 -0.453125q1.3125 -0.453125 2.484375 -1.296875q1.1875 -0.859375 2.1875 -2.140625l3.640625 4.421875q-1.828125 2.34375 -5.0 3.8125q-3.171875 1.46875 -6.6875 1.46875zm19.72815 -0.53125l0 -35.25l6.5625 0l0 35.25l-6.5625 0zm-5.546875 -22.03125l0 -6.078125l18.25 0l0 6.078125l-18.25 0zm24.010254 22.03125l0 -28.109375l6.546875 0l0 28.109375l-6.546875 0zm3.1875 -34.078125q-1.96875 0 -3.0625 -0.984375q-1.09375 -0.984375 -1.09375 -2.796875q0 -1.703125 1.109375 -2.765625q1.125 -1.078125 3.046875 -1.078125q2.03125 0 3.125 0.984375q1.09375 0.984375 1.09375 2.859375q0 1.65625 -1.125 2.71875q-1.109375 1.0625 -3.09375 1.0625zm23.734497 34.609375q-3.9375 0 -7.09375 -1.921875q-3.140625 -1.921875 -4.953125 -5.21875q-1.8125 -3.3125 -1.8125 -7.46875q0 -4.15625 1.8125 -7.453125q1.8125 -3.3125 4.953125 -5.234375q3.15625 -1.921875 7.09375 -1.921875q3.78125 0 6.875 1.4375q3.09375 1.4375 4.8125 4.0l-3.640625 4.375q-0.796875 -1.125 -2.03125 -2.03125q-1.21875 -0.90625 -2.609375 -1.4375q-1.375 -0.53125 -2.765625 -0.53125q-2.34375 0 -4.1875 1.15625q-1.84375 1.140625 -2.90625 3.140625q-1.0625 2.0 -1.0625 4.5q0 2.5 1.09375 4.484375q1.09375 1.96875 2.953125 3.140625q1.875 1.171875 4.15625 1.171875q1.390625 0 2.6875 -0.453125q1.3125 -0.453125 2.484375 -1.296875q1.1875 -0.859375 2.1875 -2.140625l3.640625 4.421875q-1.828125 2.34375 -5.0 3.8125q-3.171875 1.46875 -6.6875 1.46875zm29.868774 0q-4.4375 0 -7.828125 -1.859375q-3.375 -1.875 -5.265625 -5.09375q-1.890625 -3.234375 -1.890625 -7.390625q0 -3.3125 1.0625 -6.03125q1.0625 -2.71875 2.953125 -4.71875q1.90625 -2.0 4.53125 -3.09375q2.640625 -1.09375 5.796875 -1.09375q2.765625 0 5.15625 1.078125q2.40625 1.0625 4.171875 2.90625q1.765625 1.828125 2.6875 4.375q0.9375 2.53125 0.890625 5.515625l-0.0625 2.296875l-22.765625 0l-1.234375 -4.484375l18.515625 0l-0.859375 0.90625l0 -1.171875q-0.15625 -1.65625 -1.0625 -2.90625q-0.90625 -1.25 -2.328125 -1.96875q-1.40625 -0.734375 -3.109375 -0.734375q-2.609375 0 -4.40625 1.015625q-1.78125 1.015625 -2.6875 2.90625q-0.90625 1.890625 -0.90625 4.71875q0 2.71875 1.140625 4.75q1.15625 2.03125 3.25 3.125q2.109375 1.09375 4.9375 1.09375q1.96875 0 3.625 -0.640625q1.65625 -0.640625 3.578125 -2.296875l3.25 4.53125q-1.4375 1.328125 -3.28125 2.265625q-1.84375 0.9375 -3.875 1.46875q-2.015625 0.53125 -3.984375 0.53125zm27.45337 0q-3.71875 0 -6.6875 -1.25q-2.953125 -1.25 -4.828125 -3.59375l4.265625 -3.6875q1.609375 1.8125 3.578125 2.609375q1.96875 0.796875 4.15625 0.796875q0.90625 0 1.625 -0.203125q0.71875 -0.21875 1.25 -0.640625q0.546875 -0.421875 0.828125 -0.984375q0.296875 -0.5625 0.296875 -1.25q0 -1.28125 -0.953125 -2.03125q-0.53125 -0.375 -1.6875 -0.796875q-1.140625 -0.4375 -2.953125 -0.859375q-2.890625 -0.75 -4.8125 -1.734375q-1.90625 -0.984375 -2.984375 -2.21875q-0.90625 -1.0 -1.359375 -2.28125q-0.453125 -1.28125 -0.453125 -2.78125q0 -1.859375 0.828125 -3.375q0.828125 -1.53125 2.265625 -2.640625q1.453125 -1.125 3.359375 -1.703125q1.921875 -0.59375 4.0 -0.59375q2.140625 0 4.140625 0.53125q2.0 0.53125 3.734375 1.515625q1.734375 0.984375 2.953125 2.375l-3.625 4.0q-1.015625 -0.953125 -2.21875 -1.703125q-1.1875 -0.75 -2.421875 -1.203125q-1.21875 -0.453125 -2.296875 -0.453125q-1.0 0 -1.8125 0.1875q-0.796875 0.1875 -1.328125 0.5625q-0.53125 0.375 -0.828125 0.9375q-0.296875 0.546875 -0.296875 1.296875q0.0625 0.640625 0.34375 1.203125q0.296875 0.5625 0.828125 0.9375q0.59375 0.375 1.765625 0.859375q1.171875 0.46875 3.046875 0.890625q2.609375 0.703125 4.359375 1.5625q1.765625 0.84375 2.78125 1.96875q1.015625 0.953125 1.4375 2.234375q0.421875 1.28125 0.421875 2.828125q0 2.5 -1.40625 4.484375q-1.40625 1.96875 -3.84375 3.09375q-2.421875 1.109375 -5.46875 1.109375z" fill-rule="nonzero"/><path fill="#ffffff" d="m447.26624 150.71706l0 -37.328125l16.203125 0q3.359375 0 6.125 1.578125q2.78125 1.5625 4.40625 4.265625q1.640625 2.6875 1.640625 6.046875q0 3.203125 -1.640625 5.890625q-1.625 2.6875 -4.375 4.265625q-2.734375 1.578125 -6.15625 1.578125l-9.4375 0l0 13.703125l-6.765625 0zm21.640625 0l-9.484375 -16.859375l7.140625 -1.328125l10.5625 18.234375l-8.21875 -0.046875zm-14.875 -19.734375l9.5 0q1.546875 0 2.6875 -0.71875q1.15625 -0.71875 1.78125 -2.0q0.640625 -1.28125 0.640625 -2.828125q0 -1.75 -0.796875 -3.03125q-0.796875 -1.28125 -2.234375 -2.03125q-1.4375 -0.75 -3.3125 -0.75l-8.265625 0l0 11.359375zm41.33737 20.265625q-4.4375 0 -7.828125 -1.859375q-3.375 -1.875 -5.265625 -5.09375q-1.890625 -3.234375 -1.890625 -7.390625q0 -3.3125 1.0625 -6.03125q1.0625 -2.71875 2.953125 -4.71875q1.90625 -2.0 4.53125 -3.09375q2.640625 -1.09375 5.796875 -1.09375q2.765625 0 5.15625 1.078125q2.40625 1.0625 4.171875 2.90625q1.765625 1.828125 2.6875 4.375q0.9375 2.53125 0.890625 5.515625l-0.0625 2.296875l-22.765625 0l-1.234375 -4.484375l18.515625 0l-0.859375 0.90625l0 -1.171875q-0.15625 -1.65625 -1.0625 -2.90625q-0.90625 -1.25 -2.328125 -1.96875q-1.40625 -0.734375 -3.109375 -0.734375q-2.609375 0 -4.40625 1.015625q-1.78125 1.015625 -2.6875 2.90625q-0.90625 1.890625 -0.90625 4.71875q0 2.71875 1.140625 4.75q1.15625 2.03125 3.25 3.125q2.109375 1.09375 4.9375 1.09375q1.96875 0 3.625 -0.640625q1.65625 -0.640625 3.578125 -2.296875l3.25 4.53125q-1.4375 1.328125 -3.28125 2.265625q-1.84375 0.9375 -3.875 1.46875q-2.015625 0.53125 -3.984375 0.53125zm28.687714 0q-3.46875 0 -6.296875 -1.921875q-2.828125 -1.921875 -4.53125 -5.21875q-1.703125 -3.3125 -1.703125 -7.515625q0 -4.21875 1.703125 -7.515625q1.703125 -3.3125 4.640625 -5.171875q2.9375 -1.875 6.609375 -1.875q2.140625 0 3.890625 0.609375q1.765625 0.609375 3.09375 1.734375q1.34375 1.125 2.21875 2.5625q0.875 1.4375 1.203125 3.09375l-1.4375 -0.375l0 -7.046875l6.609375 0l0 28.109375l-6.671875 0l0 -6.71875l1.546875 -0.265625q-0.375 1.4375 -1.359375 2.796875q-0.984375 1.359375 -2.453125 2.40625q-1.46875 1.03125 -3.25 1.671875q-1.78125 0.640625 -3.8125 0.640625zm1.8125 -5.8125q2.296875 0 4.046875 -1.109375q1.765625 -1.125 2.75 -3.125q0.984375 -2.0 0.984375 -4.609375q0 -2.5625 -0.984375 -4.53125q-0.984375 -1.984375 -2.75 -3.09375q-1.75 -1.125 -4.046875 -1.125q-2.296875 0 -4.03125 1.125q-1.734375 1.109375 -2.703125 3.09375q-0.953125 1.96875 -0.953125 4.53125q0 2.609375 0.953125 4.609375q0.96875 2.0 2.703125 3.125q1.734375 1.109375 4.03125 1.109375zm33.111633 5.8125q-3.734375 0 -6.6875 -1.890625q-2.953125 -1.890625 -4.6875 -5.171875q-1.734375 -3.28125 -1.734375 -7.546875q0 -4.21875 1.703125 -7.515625q1.703125 -3.3125 4.65625 -5.203125q2.96875 -1.890625 6.703125 -1.890625q2.03125 0 3.921875 0.640625q1.890625 0.640625 3.375 1.734375q1.5 1.09375 2.375 2.421875q0.890625 1.328125 0.984375 2.765625l-1.75 0.21875l0 -18.5625l6.5625 0l0 39.46875l-6.359375 0l-0.15625 -6.609375l1.28125 0.109375q-0.046875 1.328125 -0.9375 2.5625q-0.875 1.21875 -2.265625 2.234375q-1.375 1.015625 -3.21875 1.625q-1.84375 0.609375 -3.765625 0.609375zm1.28125 -5.546875q2.296875 0 4.046875 -1.171875q1.765625 -1.171875 2.75 -3.1875q0.984375 -2.03125 0.984375 -4.703125q0 -2.609375 -0.984375 -4.65625q-0.984375 -2.0625 -2.75 -3.203125q-1.75 -1.15625 -4.046875 -1.15625q-2.296875 0 -4.0625 1.15625q-1.75 1.140625 -2.734375 3.203125q-0.984375 2.046875 -0.984375 4.65625q0 2.671875 0.984375 4.703125q0.984375 2.015625 2.734375 3.1875q1.765625 1.171875 4.0625 1.171875zm22.355103 5.015625l0 -28.109375l6.546875 0l0 28.109375l-6.546875 0zm3.1875 -34.078125q-1.96875 0 -3.0625 -0.984375q-1.09375 -0.984375 -1.09375 -2.796875q0 -1.703125 1.109375 -2.765625q1.125 -1.078125 3.046875 -1.078125q2.03125 0 3.125 0.984375q1.09375 0.984375 1.09375 2.859375q0 1.65625 -1.125 2.71875q-1.109375 1.0625 -3.09375 1.0625zm11.687622 34.078125l0 -28.109375l6.390625 0l0.109375 5.765625l-1.21875 0.640625q0.53125 -1.921875 2.078125 -3.484375q1.546875 -1.578125 3.671875 -2.53125q2.140625 -0.96875 4.375 -0.96875q3.203125 0 5.359375 1.28125q2.15625 1.28125 3.25 3.84375q1.09375 2.546875 1.09375 6.390625l0 17.171875l-6.5625 0l0 -16.6875q0 -2.140625 -0.59375 -3.546875q-0.578125 -1.421875 -1.8125 -2.078125q-1.21875 -0.671875 -2.96875 -0.625q-1.4375 0 -2.640625 0.453125q-1.203125 0.453125 -2.09375 1.28125q-0.875 0.828125 -1.375 1.90625q-0.5 1.0625 -0.5 2.34375l0 16.953125l-3.265625 0q-0.953125 0 -1.78125 0q-0.828125 0 -1.515625 0zm45.64868 0.53125q-4.4375 0 -7.828125 -1.859375q-3.375 -1.875 -5.265625 -5.09375q-1.890625 -3.234375 -1.890625 -7.390625q0 -3.3125 1.0625 -6.03125q1.0625 -2.71875 2.953125 -4.71875q1.90625 -2.0 4.53125 -3.09375q2.640625 -1.09375 5.796875 -1.09375q2.765625 0 5.15625 1.078125q2.40625 1.0625 4.171875 2.90625q1.765625 1.828125 2.6875 4.375q0.9375 2.53125 0.890625 5.515625l-0.0625 2.296875l-22.765625 0l-1.234375 -4.484375l18.515625 0l-0.859375 0.90625l0 -1.171875q-0.15625 -1.65625 -1.0625 -2.90625q-0.90625 -1.25 -2.328125 -1.96875q-1.40625 -0.734375 -3.109375 -0.734375q-2.609375 0 -4.40625 1.015625q-1.78125 1.015625 -2.6875 2.90625q-0.90625 1.890625 -0.90625 4.71875q0 2.71875 1.140625 4.75q1.15625 2.03125 3.25 3.125q2.109375 1.09375 4.9375 1.09375q1.96875 0 3.625 -0.640625q1.65625 -0.640625 3.578125 -2.296875l3.25 4.53125q-1.4375 1.328125 -3.28125 2.265625q-1.84375 0.9375 -3.875 1.46875q-2.015625 0.53125 -3.984375 0.53125zm27.45337 0q-3.71875 0 -6.6875 -1.25q-2.953125 -1.25 -4.828125 -3.59375l4.265625 -3.6875q1.609375 1.8125 3.578125 2.609375q1.96875 0.796875 4.15625 0.796875q0.90625 0 1.625 -0.203125q0.71875 -0.21875 1.25 -0.640625q0.546875 -0.421875 0.828125 -0.984375q0.296875 -0.5625 0.296875 -1.25q0 -1.28125 -0.953125 -2.03125q-0.53125 -0.375 -1.6875 -0.796875q-1.140625 -0.4375 -2.953125 -0.859375q-2.890625 -0.75 -4.8125 -1.734375q-1.90625 -0.984375 -2.984375 -2.21875q-0.90625 -1.0 -1.359375 -2.28125q-0.453125 -1.28125 -0.453125 -2.78125q0 -1.859375 0.828125 -3.375q0.828125 -1.53125 2.265625 -2.640625q1.453125 -1.125 3.359375 -1.703125q1.921875 -0.59375 4.0 -0.59375q2.140625 0 4.140625 0.53125q2.0 0.53125 3.734375 1.515625q1.734375 0.984375 2.953125 2.375l-3.625 4.0q-1.015625 -0.953125 -2.21875 -1.703125q-1.1875 -0.75 -2.421875 -1.203125q-1.21875 -0.453125 -2.296875 -0.453125q-1.0 0 -1.8125 0.1875q-0.796875 0.1875 -1.328125 0.5625q-0.53125 0.375 -0.828125 0.9375q-0.296875 0.546875 -0.296875 1.296875q0.0625 0.640625 0.34375 1.203125q0.296875 0.5625 0.828125 0.9375q0.59375 0.375 1.765625 0.859375q1.171875 0.46875 3.046875 0.890625q2.609375 0.703125 4.359375 1.5625q1.765625 0.84375 2.78125 1.96875q1.015625 0.953125 1.4375 2.234375q0.421875 1.28125 0.421875 2.828125q0 2.5 -1.40625 4.484375q-1.40625 1.96875 -3.84375 3.09375q-2.421875 1.109375 -5.46875 1.109375zm25.864075 0q-3.71875 0 -6.6875 -1.25q-2.953125 -1.25 -4.828125 -3.59375l4.265625 -3.6875q1.609375 1.8125 3.578125 2.609375q1.96875 0.796875 4.15625 0.796875q0.90625 0 1.625 -0.203125q0.71875 -0.21875 1.25 -0.640625q0.546875 -0.421875 0.828125 -0.984375q0.296875 -0.5625 0.296875 -1.25q0 -1.28125 -0.953125 -2.03125q-0.53125 -0.375 -1.6875 -0.796875q-1.140625 -0.4375 -2.953125 -0.859375q-2.890625 -0.75 -4.8125 -1.734375q-1.90625 -0.984375 -2.984375 -2.21875q-0.90625 -1.0 -1.359375 -2.28125q-0.453125 -1.28125 -0.453125 -2.78125q0 -1.859375 0.828125 -3.375q0.828125 -1.53125 2.265625 -2.640625q1.453125 -1.125 3.359375 -1.703125q1.921875 -0.59375 4.0 -0.59375q2.140625 0 4.140625 0.53125q2.0 0.53125 3.734375 1.515625q1.734375 0.984375 2.953125 2.375l-3.625 4.0q-1.015625 -0.953125 -2.21875 -1.703125q-1.1875 -0.75 -2.421875 -1.203125q-1.21875 -0.453125 -2.296875 -0.453125q-1.0 0 -1.8125 0.1875q-0.796875 0.1875 -1.328125 0.5625q-0.53125 0.375 -0.828125 0.9375q-0.296875 0.546875 -0.296875 1.296875q0.0625 0.640625 0.34375 1.203125q0.296875 0.5625 0.828125 0.9375q0.59375 0.375 1.765625 0.859375q1.171875 0.46875 3.046875 0.890625q2.609375 0.703125 4.359375 1.5625q1.765625 0.84375 2.78125 1.96875q1.015625 0.953125 1.4375 2.234375q0.421875 1.28125 0.421875 2.828125q0 2.5 -1.40625 4.484375q-1.40625 1.96875 -3.84375 3.09375q-2.421875 1.109375 -5.46875 1.109375z" fill-rule="nonzero"/><path fill="#000000" fill-opacity="0.0" d="m709.10406 97.38902l31.356873 0l0 66.66005l-31.356873 0l0 -66.66005z" fill-rule="nonzero"/><path fill="#000000" fill-opacity="0.0" d="m740.46094 97.38902l0 0l0 66.66005l0 0l0 -66.66005z" fill-rule="nonzero"/><path fill="#000000" d="m447.26624 214.71706l0 -37.328125l6.5625 0l13.59375 22.125l-3.84375 -0.046875l13.765625 -22.078125l6.234375 0l0 37.328125l-6.875 0l0 -14.03125q0 -4.796875 0.234375 -8.625q0.25 -3.84375 0.828125 -7.640625l0.859375 2.296875l-11.578125 17.875l-3.515625 0l-11.203125 -17.71875l0.75 -2.453125q0.578125 3.578125 0.8125 7.34375q0.25 3.75 0.25 8.921875l0 14.03125l-6.875 0zm55.77957 0.53125q-3.46875 0 -6.296875 -1.921875q-2.828125 -1.921875 -4.53125 -5.21875q-1.703125 -3.3125 -1.703125 -7.515625q0 -4.21875 1.703125 -7.515625q1.703125 -3.3125 4.640625 -5.171875q2.9375 -1.875 6.609375 -1.875q2.140625 0 3.890625 0.609375q1.765625 0.609375 3.09375 1.734375q1.34375 1.125 2.2187805 2.5625q0.875 1.4375 1.203125 3.09375l-1.4375 -0.375l0 -7.046875l6.609375 0l0 28.109375l-6.671875 0l0 -6.71875l1.546875 -0.265625q-0.375 1.4375 -1.359375 2.796875q-0.9844055 1.359375 -2.4531555 2.40625q-1.46875 1.03125 -3.25 1.671875q-1.78125 0.640625 -3.8125 0.640625zm1.8125 -5.8125q2.296875 0 4.046875 -1.109375q1.765625 -1.125 2.75 -3.125q0.9844055 -2.0 0.9844055 -4.609375q0 -2.5625 -0.9844055 -4.53125q-0.984375 -1.984375 -2.75 -3.09375q-1.75 -1.125 -4.046875 -1.125q-2.296875 0 -4.03125 1.125q-1.734375 1.109375 -2.703125 3.09375q-0.953125 1.96875 -0.953125 4.53125q0 2.609375 0.953125 4.609375q0.96875 2.0 2.703125 3.125q1.734375 1.109375 4.03125 1.109375zm24.845978 5.28125l0 -35.25l6.5625 0l0 35.25l-6.5625 0zm-5.546875 -22.03125l0 -6.078125l18.25 0l0 6.078125l-18.25 0zm33.010254 22.5625q-3.03125 0 -5.28125 -1.359375q-2.234375 -1.359375 -3.40625 -3.890625q-1.171875 -2.53125 -1.171875 -6.046875l0 -17.34375l6.5625 0l0 15.953125q0 2.234375 0.6875 3.8125q0.6875 1.578125 2.015625 2.4375q1.34375 0.84375 3.21875 0.84375q1.375 0 2.515625 -0.453125q1.15625 -0.453125 2.0 -1.28125q0.859375 -0.828125 1.34375 -1.96875q0.484375 -1.15625 0.484375 -2.484375l0 -16.859375l6.546875 0l0 28.109375l-6.390625 0l-0.109375 -5.859375l1.171875 -0.640625q-0.640625 2.015625 -2.15625 3.59375q-1.515625 1.578125 -3.609375 2.515625q-2.078125 0.921875 -4.421875 0.921875zm23.206726 -0.53125l0 -28.109375l6.453125 0l0.109375 8.96875l-0.90625 -2.03125q0.578125 -2.125 2.015625 -3.828125q1.4375 -1.71875 3.328125 -2.703125q1.90625 -0.984375 3.984375 -0.984375q0.90625 0 1.734375 0.15625q0.828125 0.15625 1.359375 0.375l-1.765625 7.203125q-0.578125 -0.328125 -1.4375 -0.53125q-0.859375 -0.21875 -1.703125 -0.21875q-1.34375 0 -2.546875 0.515625q-1.1875 0.5 -2.09375 1.40625q-0.90625 0.90625 -1.421875 2.109375q-0.5 1.1875 -0.5 2.6875l0 14.984375l-6.609375 0zm23.20111 0l0 -28.109375l6.546875 0l0 28.109375l-6.546875 0zm3.1875 -34.078125q-1.96875 0 -3.0625 -0.984375q-1.09375 -0.984375 -1.09375 -2.796875q0 -1.703125 1.109375 -2.765625q1.125 -1.078125 3.046875 -1.078125q2.03125 0 3.125 0.984375q1.09375 0.984375 1.09375 2.859375q0 1.65625 -1.125 2.71875q-1.109375 1.0625 -3.09375 1.0625zm14.718872 34.078125l0 -35.25l6.5625 0l0 35.25l-6.5625 0zm-5.546875 -22.03125l0 -6.078125l18.25 0l0 6.078125l-18.25 0zm27.525879 34.296875l5.96875 -13.8125l0.046875 4.375l-13.859375 -30.9375l7.578125 0l7.734375 18.34375q0.359375 0.703125 0.734375 1.859375q0.375 1.140625 0.640625 2.25l-1.328125 0.4375q0.375 -1.015625 0.796875 -2.15625q0.4375 -1.15625 0.796875 -2.390625l6.625 -18.34375l7.625 0l-11.734375 28.109375l-4.796875 12.265625l-6.828125 0z" fill-rule="nonzero"/><path fill="#000000" d="m447.26624 278.71707l0 -37.32814l24.421875 0l0 6.296875l-17.59375 0l0 24.73439l17.8125 0l0 6.296875l-24.640625 0zm3.203125 -16.0l0 -6.1875l18.5 0l0 6.1875l-18.5 0zm47.142517 16.0l-8.0 -10.828125l-1.5 -2.03125l-11.578125 -15.250015l8.109375 0l7.796875 10.562515l1.640625 2.234375l11.46875 15.3125l-7.9375 0zm-21.125 0l11.140625 -14.9375l3.734375 4.484375l-7.140625 10.453125l-7.734375 0zm17.59375 -13.125l-3.5625 -4.421875l6.453125 -10.562515l7.71875 0l-10.609375 14.98439zm26.614258 13.65625q-3.9375 0 -7.09375 -1.921875q-3.1406555 -1.921875 -4.9531555 -5.21875q-1.8125 -3.3125 -1.8125 -7.46875q0 -4.15625 1.8125 -7.453125q1.8125 -3.3125153 4.9531555 -5.2343903q3.15625 -1.921875 7.09375 -1.921875q3.78125 0 6.875 1.4375q3.09375 1.4375 4.8125 4.0l-3.640625 4.3750153q-0.796875 -1.125 -2.03125 -2.03125q-1.21875 -0.90625 -2.609375 -1.4375q-1.375 -0.53126526 -2.765625 -0.53126526q-2.34375 0 -4.1875 1.1562653q-1.84375 1.140625 -2.90625 3.140625q-1.0625 2.0 -1.0625 4.5q0 2.5 1.09375 4.484375q1.09375 1.96875 2.953125 3.140625q1.875 1.171875 4.15625 1.171875q1.390625 0 2.6875 -0.453125q1.3125 -0.453125 2.484375 -1.296875q1.1875 -0.859375 2.1875 -2.140625l3.640625 4.421875q-1.828125 2.34375 -5.0 3.8125q-3.171875 1.46875 -6.6875 1.46875zm29.868774 0q-4.4375 0 -7.828125 -1.859375q-3.375 -1.875 -5.265625 -5.09375q-1.890625 -3.234375 -1.890625 -7.390625q0 -3.3125 1.0625 -6.03125q1.0625 -2.71875 2.953125 -4.7187653q1.90625 -2.0 4.53125 -3.09375q2.640625 -1.09375 5.796875 -1.09375q2.765625 0 5.15625 1.078125q2.40625 1.0625 4.171875 2.90625q1.765625 1.828125 2.6875 4.3750153q0.9375 2.53125 0.890625 5.515625l-0.0625 2.296875l-22.765625 0l-1.234375 -4.484375l18.515625 0l-0.859375 0.90625l0 -1.171875q-0.15625 -1.65625 -1.0625 -2.90625q-0.90625 -1.25 -2.328125 -1.96875q-1.40625 -0.73439026 -3.109375 -0.73439026q-2.609375 0 -4.40625 1.0156403q-1.78125 1.015625 -2.6875 2.90625q-0.90625 1.890625 -0.90625 4.71875q0 2.71875 1.140625 4.75q1.15625 2.03125 3.25 3.125q2.109375 1.09375 4.9375 1.09375q1.96875 0 3.625 -0.640625q1.65625 -0.640625 3.578125 -2.296875l3.25 4.53125q-1.4375 1.328125 -3.28125 2.265625q-1.84375 0.9375 -3.875 1.46875q-2.015625 0.53125 -3.984375 0.53125zm18.125244 -0.53125l0 -39.468765l6.609375 0l0 39.468765l-6.609375 0zm14.39856 0l0 -39.468765l6.609375 0l0 39.468765l-6.609375 0zm26.990234 0.53125q-4.4375 0 -7.828125 -1.859375q-3.375 -1.875 -5.265625 -5.09375q-1.890625 -3.234375 -1.890625 -7.390625q0 -3.3125 1.0625 -6.03125q1.0625 -2.71875 2.953125 -4.7187653q1.90625 -2.0 4.53125 -3.09375q2.640625 -1.09375 5.796875 -1.09375q2.765625 0 5.15625 1.078125q2.40625 1.0625 4.171875 2.90625q1.765625 1.828125 2.6875 4.3750153q0.9375 2.53125 0.890625 5.515625l-0.0625 2.296875l-22.765625 0l-1.234375 -4.484375l18.515625 0l-0.859375 0.90625l0 -1.171875q-0.15625 -1.65625 -1.0625 -2.90625q-0.90625 -1.25 -2.328125 -1.96875q-1.40625 -0.73439026 -3.109375 -0.73439026q-2.609375 0 -4.40625 1.0156403q-1.78125 1.015625 -2.6875 2.90625q-0.90625 1.890625 -0.90625 4.71875q0 2.71875 1.140625 4.75q1.15625 2.03125 3.25 3.125q2.109375 1.09375 4.9375 1.09375q1.96875 0 3.625 -0.640625q1.65625 -0.640625 3.578125 -2.296875l3.25 4.53125q-1.4375 1.328125 -3.28125 2.265625q-1.84375 0.9375 -3.875 1.46875q-2.015625 0.53125 -3.984375 0.53125zm18.07837 -0.53125l0 -28.10939l6.390625 0l0.109375 5.7656403l-1.21875 0.640625q0.53125 -1.9218903 2.078125 -3.4843903q1.546875 -1.578125 3.671875 -2.53125q2.140625 -0.96875 4.375 -0.96875q3.203125 0 5.359375 1.28125q2.15625 1.28125 3.25 3.84375q1.09375 2.5468903 1.09375 6.3906403l0 17.171875l-6.5625 0l0 -16.6875q0 -2.140625 -0.59375 -3.546875q-0.578125 -1.421875 -1.8125 -2.078125q-1.21875 -0.67189026 -2.96875 -0.62501526q-1.4375 0 -2.640625 0.45314026q-1.203125 0.453125 -2.09375 1.28125q-0.875 0.828125 -1.375 1.90625q-0.5 1.0625 -0.5 2.34375l0 16.953125l-3.265625 0q-0.953125 0 -1.78125 0q-0.828125 0 -1.515625 0zm44.52362 0.53125q-3.9375 0 -7.09375 -1.921875q-3.140625 -1.921875 -4.953125 -5.21875q-1.8125 -3.3125 -1.8125 -7.46875q0 -4.15625 1.8125 -7.453125q1.8125 -3.3125153 4.953125 -5.2343903q3.15625 -1.921875 7.09375 -1.921875q3.781311 0 6.875061 1.4375q3.09375 1.4375 4.8125 4.0l-3.640625 4.3750153q-0.796875 -1.125 -2.03125 -2.03125q-1.21875 -0.90625 -2.609375 -1.4375q-1.375 -0.53126526 -2.765686 -0.53126526q-2.34375 0 -4.1875 1.1562653q-1.84375 1.140625 -2.90625 3.140625q-1.0625 2.0 -1.0625 4.5q0 2.5 1.09375 4.484375q1.09375 1.96875 2.953125 3.140625q1.875 1.171875 4.15625 1.171875q1.390686 0 2.687561 -0.453125q1.3125 -0.453125 2.484375 -1.296875q1.1875 -0.859375 2.1875 -2.140625l3.640625 4.421875q-1.828125 2.34375 -5.0 3.8125q-3.171875 1.46875 -6.687561 1.46875zm29.868835 0q-4.4375 0 -7.828125 -1.859375q-3.375 -1.875 -5.265625 -5.09375q-1.890625 -3.234375 -1.890625 -7.390625q0 -3.3125 1.0625 -6.03125q1.0625 -2.71875 2.953125 -4.7187653q1.90625 -2.0 4.53125 -3.09375q2.640625 -1.09375 5.796875 -1.09375q2.765625 0 5.15625 1.078125q2.40625 1.0625 4.171875 2.90625q1.765625 1.828125 2.6875 4.3750153q0.9375 2.53125 0.890625 5.515625l-0.0625 2.296875l-22.765625 0l-1.234375 -4.484375l18.515625 0l-0.859375 0.90625l0 -1.171875q-0.15625 -1.65625 -1.0625 -2.90625q-0.90625 -1.25 -2.328125 -1.96875q-1.40625 -0.73439026 -3.109375 -0.73439026q-2.609375 0 -4.40625 1.0156403q-1.78125 1.015625 -2.6875 2.90625q-0.90625 1.890625 -0.90625 4.71875q0 2.71875 1.140625 4.75q1.15625 2.03125 3.25 3.125q2.109375 1.09375 4.9375 1.09375q1.96875 0 3.625 -0.640625q1.65625 -0.640625 3.578125 -2.296875l3.25 4.53125q-1.4375 1.328125 -3.28125 2.265625q-1.84375 0.9375 -3.875 1.46875q-2.015625 0.53125 -3.984375 0.53125z" fill-rule="nonzero"/></g></svg>